<svg version="1.1" id="Layer_1" xmlns="http://www.w3.org/2000/svg" xmlns:xlink="http://www.w3.org/1999/xlink" x="0px" y="0px" width="100%" viewBox="0 0 3333 3187" enable-background="new 0 0 3333 3187" xml:space="preserve">

<path fill="#000000" opacity="1.000000" stroke="none" d="
M5.296333,961.747498 
	C9.350669,902.402039 23.029764,845.175232 43.620914,789.532471 
	C77.803810,697.161316 128.563583,614.664246 193.468399,540.850891 
	C251.868484,474.435089 319.330902,418.691071 395.283417,373.415100 
	C477.519165,324.393707 565.632568,290.171265 659.230957,269.960175 
	C702.102234,260.702820 745.376831,254.697327 789.087463,251.124634 
	C827.943787,247.948700 866.855652,247.086090 905.723877,248.288101 
	C1003.630127,251.315857 1100.057739,264.788147 1194.397217,291.895447 
	C1291.054199,319.668671 1382.096069,359.917694 1467.196045,413.593781 
	C1513.401245,442.737366 1556.989258,475.376556 1597.526123,511.933411 
	C1625.447998,537.113892 1652.064941,563.693909 1676.038330,594.089111 
	C1679.041016,594.089111 1682.658325,594.070007 1686.275391,594.091919 
	C1751.219971,594.485718 1816.164795,594.857483 1881.109131,595.294312 
	C1910.415161,595.491394 1939.719971,595.877625 1969.026001,596.077332 
	C2032.970459,596.513123 2096.915527,596.864075 2160.860107,597.290283 
	C2194.165283,597.512207 2227.469727,597.850098 2260.774902,598.082520 
	C2321.053467,598.503235 2381.332520,598.855652 2441.610840,599.295105 
	C2467.580322,599.484497 2493.573486,599.246460 2519.507080,600.346802 
	C2531.318604,600.848022 2543.081787,603.789795 2554.745361,606.210815 
	C2582.040527,611.876526 2609.426514,617.244873 2636.442871,624.054382 
	C2649.486084,627.342041 2662.176514,632.787598 2674.340332,638.674438 
	C2721.593994,661.543457 2768.611084,684.902405 2815.635986,708.241333 
	C2838.551758,719.614624 2861.294434,731.336975 2884.099854,742.931824 
	C2885.793945,743.793274 2887.361572,744.903503 2890.020508,746.529419 
	C2875.601074,754.590515 2862.155762,762.199707 2848.625488,769.655334 
	C2785.806641,804.270508 2722.803223,838.556030 2660.255615,873.654297 
	C2646.513672,881.365723 2631.870605,882.014160 2617.230469,883.981079 
	C2597.197510,886.672546 2577.096436,888.869873 2557.006104,891.113403 
	C2551.398438,891.739624 2545.725342,892.051147 2540.082275,892.052612 
	C2355.440918,892.099976 2170.799561,892.017639 1986.158325,892.247681 
	C1972.958618,892.264099 1959.702759,894.082458 1946.591064,895.910034 
	C1940.816162,896.714966 1935.081055,899.119324 1929.776367,901.714294 
	C1917.841553,907.552673 1912.796509,917.310181 1917.009277,929.571777 
	C1920.961426,941.074890 1926.764648,951.996277 1932.346191,962.869202 
	C1937.349365,972.615723 1943.525024,981.762878 1948.472412,991.534363 
	C1951.272949,997.065918 1953.008789,1003.226257 1954.591309,1009.269165 
	C1961.392334,1035.239990 1967.741211,1061.330444 1974.664429,1087.267944 
	C1983.903076,1121.880249 1992.365723,1156.612061 1996.097290,1192.353882 
	C1999.406006,1224.044556 1997.748047,1255.290283 1988.000610,1285.755859 
	C1981.532593,1305.971436 1973.993164,1325.843872 1967.509033,1346.054565 
	C1951.185425,1396.932617 1937.711304,1448.600586 1926.069214,1500.731445 
	C1924.760742,1506.590332 1925.759766,1513.151733 1926.578369,1519.268188 
	C1931.674683,1557.343750 1937.008301,1595.387695 1942.294922,1633.437622 
	C1948.035889,1674.757812 1953.881104,1716.063721 1959.550415,1757.393677 
	C1964.414429,1792.852905 1963.518066,1828.234375 1957.222778,1863.442139 
	C1946.202759,1925.074341 1926.977783,1984.309814 1904.805054,2042.703857 
	C1887.821655,2087.430908 1868.588501,2131.169922 1848.424927,2174.531006 
	C1845.664917,2180.466553 1844.046265,2187.028076 1842.578857,2193.454834 
	C1826.079102,2265.720459 1805.963013,2336.963867 1781.658813,2406.983643 
	C1759.626465,2470.458496 1734.754272,2532.742676 1699.462402,2590.270020 
	C1683.057617,2617.010254 1664.867920,2642.491943 1639.411011,2661.578369 
	C1627.737061,2670.331055 1614.883667,2677.504395 1603.150391,2686.185303 
	C1572.090942,2709.165527 1549.089600,2738.144531 1539.014648,2776.119873 
	C1532.244751,2801.637695 1532.508423,2827.330078 1539.070923,2852.816650 
	C1540.606079,2858.778564 1543.679810,2864.580322 1547.069214,2869.789795 
	C1564.595459,2896.725830 1574.849976,2925.653076 1572.310425,2958.235352 
	C1570.430664,2982.350586 1561.122681,3003.715820 1544.236450,3020.586670 
	C1486.363159,3078.407471 1420.793945,3124.336914 1341.575073,3148.643799 
	C1303.718018,3160.259521 1265.273804,3169.256592 1226.245850,3175.687988 
	C1197.784668,3180.378174 1169.188721,3184.250732 1140.326416,3189.243896 
	C1106.624878,3190.000000 1073.249756,3190.000000 1038.699951,3189.217773 
	C1036.280273,3188.058594 1035.058716,3187.489990 1033.786377,3187.332764 
	C980.639404,3180.769287 930.017822,3165.251465 881.304016,3143.469971 
	C837.258423,3123.776123 795.489136,3099.736816 753.986084,3075.217529 
	C708.836304,3048.543701 664.687378,3020.114014 616.857605,2998.141113 
	C582.464417,2982.341064 552.658997,2959.297607 523.082703,2936.129639 
	C473.103668,2896.979736 425.481262,2855.069336 379.349854,2811.475830 
	C343.566437,2777.661133 307.409729,2744.204834 272.576996,2709.429199 
	C215.306091,2652.252441 159.002609,2594.107422 102.168777,2536.491211 
	C98.832504,2533.109131 97.343643,2529.763916 97.611496,2525.088623 
	C99.053474,2499.919922 99.758232,2474.695557 101.800514,2449.578369 
	C103.998856,2422.541748 106.986275,2395.551025 110.386978,2368.635986 
	C113.546341,2343.630615 118.131096,2318.800049 127.042419,2295.103271 
	C147.747742,2240.043945 159.511902,2183.051025 163.473434,2124.516846 
	C165.446777,2095.359863 165.989731,2066.072510 166.167709,2036.837891 
	C166.317398,2012.249023 165.403702,1987.632080 164.213684,1963.063599 
	C163.187653,1941.880371 162.223740,1920.590454 159.259430,1899.626709 
	C153.363556,1857.930908 144.621201,1816.725098 134.281998,1775.890991 
	C121.994095,1727.360840 109.319839,1678.927856 97.142754,1630.370239 
	C85.034172,1582.085571 72.571045,1533.869751 61.672146,1485.307495 
	C50.936264,1437.471313 41.206497,1389.376099 32.480770,1341.133179 
	C26.294943,1306.932861 22.216274,1272.335815 17.770687,1237.842041 
	C15.150115,1217.508667 13.599304,1197.035645 11.655481,1176.616943 
	C8.224906,1140.580933 6.324469,1104.466797 6.335418,1068.260376 
	C6.336728,1063.927368 6.590136,1059.575806 6.273262,1055.265991 
	C5.843321,1049.418579 4.975841,1043.603271 4.414678,1036.907227 
	C4.546643,1032.513794 4.848340,1028.954956 4.458123,1025.473633 
	C4.245978,1023.580994 2.857749,1021.820251 1.999994,1020.000000 
	C2.000000,1007.957703 2.000000,995.915405 2.822630,982.669922 
	C3.925603,975.715271 4.205946,969.963684 4.885715,963.915588 
	C5.740109,962.997925 5.743840,962.374084 5.296333,961.747498 
M1058.040771,984.390137 
	C1064.622437,983.623901 1071.189453,982.685181 1077.788574,982.124023 
	C1096.623657,980.522278 1115.547119,979.676208 1134.286499,977.337646 
	C1145.375000,975.953796 1156.560425,973.320007 1167.012451,969.406128 
	C1178.548828,965.086121 1180.800903,955.883240 1174.254272,945.177246 
	C1171.510132,940.689514 1168.288452,936.223755 1164.383423,932.764282 
	C1150.468140,920.436829 1135.782715,908.960632 1122.141846,896.347656 
	C1112.682251,887.600952 1103.488281,878.224731 1095.925049,867.854004 
	C1085.988770,854.229248 1088.826416,843.504333 1102.753784,834.088928 
	C1104.945923,832.606934 1107.377686,831.482971 1109.604492,830.047241 
	C1113.202759,827.727051 1116.957520,825.567871 1120.235474,822.846313 
	C1135.052734,810.544189 1149.599854,797.914978 1164.500488,785.716553 
	C1172.698242,779.005432 1181.587158,773.141846 1189.834473,766.487305 
	C1201.215454,757.304077 1201.991577,745.801636 1191.356689,735.800964 
	C1185.379639,730.180298 1178.375244,725.462769 1171.288330,721.257202 
	C1161.302856,715.331360 1150.715942,710.430420 1140.554199,704.788391 
	C1104.155640,684.579285 1069.917847,661.028992 1035.841919,637.197876 
	C1025.852295,630.211609 1017.546509,622.372986 1012.025024,611.268738 
	C999.128235,585.331970 987.380920,559.185547 983.375916,530.010437 
	C981.817200,518.656006 977.795959,507.532684 973.977966,496.625580 
	C970.187439,485.797028 963.019714,477.294464 951.331909,474.651886 
	C942.970703,472.761444 934.241150,471.292786 925.726196,471.519806 
	C901.973450,472.153168 879.059509,477.777130 856.889221,486.084900 
	C829.884583,496.204224 802.422424,503.314941 773.258240,502.197601 
	C767.923645,501.993225 764.311584,501.045227 763.321777,495.047424 
	C762.624084,490.819458 760.829773,486.783752 759.936340,482.574951 
	C755.453918,461.458832 753.332886,440.059601 752.257019,418.519501 
	C751.944214,412.255981 751.254395,405.904419 749.763672,399.832245 
	C747.651489,391.229156 741.245483,388.905975 733.786255,393.847534 
	C729.950012,396.389008 726.154175,399.426483 723.355347,403.028625 
	C705.038513,426.602905 685.917358,449.578857 670.655945,475.422729 
	C665.798279,483.648651 660.044617,491.636871 653.369019,498.423767 
	C645.101074,506.829437 637.637939,506.165344 628.993408,498.075653 
	C611.683716,481.877014 591.290527,471.139557 569.043335,463.449188 
	C564.534790,461.890686 560.717285,462.092804 556.613708,464.101776 
	C543.301270,470.619141 535.044861,481.475464 530.066223,495.064056 
	C524.649475,509.848297 522.337463,525.182861 522.299316,540.909607 
	C522.285583,546.562439 522.405090,552.294922 521.555420,557.852173 
	C518.632080,576.972961 509.916229,591.808289 489.994446,597.360291 
	C478.650940,600.521606 467.016724,600.648132 455.342407,599.696960 
	C445.089325,598.861633 434.787048,597.125549 424.579437,597.548340 
	C402.941864,598.444458 381.418488,598.007263 359.843689,596.264282 
	C352.707123,595.687622 344.683380,595.779419 339.014008,600.908569 
	C331.826813,607.410767 327.671692,615.658508 331.259399,625.892517 
	C335.430267,637.789978 339.064911,649.911133 343.907593,661.528687 
	C350.547638,677.458130 358.422272,692.870911 365.152130,708.765808 
	C369.277924,718.510254 372.503601,728.783752 371.141815,739.618774 
	C368.973969,756.866760 357.627686,766.750427 342.288635,771.826050 
	C329.110474,776.186646 315.489136,779.749878 301.785675,781.859375 
	C278.839355,785.391602 259.589142,795.677734 243.086945,811.295044 
	C231.940857,821.843323 233.523727,832.742493 246.825043,840.554871 
	C253.079102,844.227966 259.803680,847.345032 266.663330,849.699219 
	C295.038666,859.437195 324.444092,864.340576 354.113464,868.256348 
	C367.520081,870.025757 380.996155,872.763611 393.835388,876.928162 
	C407.389679,881.324707 416.061462,891.773621 417.950562,906.135132 
	C419.413696,917.258301 419.272095,928.604065 419.631226,939.857666 
	C419.992310,951.171936 419.323608,962.572632 420.465912,973.797058 
	C422.743927,996.181213 434.337982,1006.062256 456.784241,1006.089355 
	C463.750763,1006.097778 470.717285,1006.090698 478.904724,1006.090698 
	C481.274384,1014.863892 483.969696,1024.030273 486.216614,1033.305542 
	C494.806580,1068.764282 502.989166,1104.324219 511.870026,1139.709229 
	C515.912842,1155.817505 521.832520,1171.324463 531.166931,1185.328491 
	C539.627686,1198.021851 554.203369,1203.795776 568.147705,1187.139771 
	C577.953857,1175.426758 587.650818,1163.617065 597.676758,1152.094482 
	C608.637878,1139.496948 620.629578,1127.981812 635.814331,1120.493652 
	C644.441467,1116.239136 648.518677,1117.204224 655.563110,1123.718872 
	C677.040588,1143.581055 698.308228,1163.682129 720.183838,1183.097168 
	C731.834290,1193.437134 744.616699,1202.496094 756.797974,1212.245850 
	C762.735901,1216.998413 769.184021,1217.748047 776.400940,1216.029053 
	C788.059875,1213.252075 797.835510,1207.156494 806.701050,1199.431152 
	C822.171387,1185.950562 833.644104,1169.353271 843.818420,1151.707031 
	C850.114319,1140.787476 856.449768,1129.849609 863.508301,1119.421387 
	C872.344116,1106.367188 885.350525,1099.947266 900.960876,1100.235596 
	C916.529480,1100.523438 932.152588,1101.325562 947.611816,1103.112427 
	C963.733643,1104.975830 979.685181,1108.303711 995.717163,1110.954956 
	C1006.879089,1112.800781 1015.314941,1108.531616 1020.914490,1098.960083 
	C1023.059143,1095.294189 1024.588867,1091.156006 1025.752930,1087.049927 
	C1029.558472,1073.625977 1029.041016,1060.203491 1025.579712,1046.710449 
	C1023.361816,1038.064941 1021.310608,1029.296753 1020.243103,1020.455688 
	C1018.804688,1008.542480 1023.245911,998.564148 1034.085815,992.965820 
	C1041.051270,989.368591 1048.937866,987.554810 1058.040771,984.390137 
M1506.337158,1398.903320 
	C1506.337036,1393.240967 1506.525513,1387.570923 1506.297607,1381.917725 
	C1505.817871,1370.018311 1505.544189,1358.036011 1500.290283,1346.966187 
	C1489.441895,1324.109497 1474.049805,1304.644653 1454.989136,1288.197876 
	C1436.298950,1272.070801 1415.280151,1259.248779 1393.693481,1247.423340 
	C1381.770874,1240.892090 1369.812256,1233.887329 1356.007202,1232.318970 
	C1339.550293,1230.449463 1323.014282,1228.824585 1306.473511,1228.277466 
	C1291.559082,1227.784302 1276.573120,1228.546631 1261.651489,1229.357544 
	C1227.160034,1231.231934 1193.206787,1235.428345 1159.784790,1245.524902 
	C1109.137329,1260.825073 1070.627808,1290.537720 1041.380249,1334.273926 
	C1019.533569,1366.943237 1021.479614,1417.847778 1045.326294,1447.285522 
	C1060.009888,1465.411987 1075.287109,1482.800781 1092.447021,1498.522339 
	C1105.051636,1510.070557 1119.243530,1519.338989 1135.616577,1524.599365 
	C1155.481079,1530.981323 1175.314697,1537.648804 1195.539429,1542.672485 
	C1221.665161,1549.162109 1248.232544,1553.559692 1275.389282,1552.090820 
	C1287.643066,1551.427979 1299.895752,1550.740601 1312.150513,1550.095337 
	C1351.479614,1548.024658 1388.199707,1538.479614 1418.908081,1512.240479 
	C1443.388184,1491.323242 1467.667969,1470.171387 1492.018311,1449.102539 
	C1497.757324,1444.136963 1501.365723,1437.819336 1502.516602,1430.376953 
	C1504.032349,1420.575928 1505.085083,1410.703247 1506.337158,1398.903320 
M1705.696899,2356.844971 
	C1727.928467,2350.589844 1747.399170,2339.377441 1763.270264,2322.702393 
	C1781.735962,2303.301270 1792.857910,2279.713623 1800.068481,2254.077881 
	C1805.661621,2234.192383 1808.154907,2213.798096 1809.431030,2193.357910 
	C1810.714111,2172.806152 1810.133057,2152.231934 1802.745972,2132.394531 
	C1790.062378,2098.333008 1758.865723,2082.437256 1732.591431,2082.974365 
	C1680.303589,2084.043701 1627.978394,2083.314697 1575.668701,2083.281250 
	C1549.406006,2083.264648 1523.154907,2084.284668 1497.220459,2088.303955 
	C1479.577026,2091.038086 1461.659058,2094.129883 1444.910034,2100.031006 
	C1416.433716,2110.063477 1389.142578,2123.218506 1362.768677,2138.062012 
	C1346.496948,2147.220215 1331.158936,2157.601074 1317.971924,2171.069336 
	C1299.793457,2189.635254 1298.221924,2213.125000 1314.752808,2231.812012 
	C1322.406006,2240.463135 1330.822876,2248.767090 1340.098877,2255.589600 
	C1362.573730,2272.119873 1386.042358,2287.295898 1408.575684,2303.750244 
	C1433.438721,2321.906006 1460.744019,2334.195801 1490.842773,2340.058838 
	C1526.985107,2347.098877 1563.172729,2353.948242 1599.457031,2360.206299 
	C1634.476318,2366.246094 1669.517822,2366.645996 1705.696899,2356.844971 
M1783.085693,1382.104980 
	C1777.305908,1389.335449 1770.933350,1396.175415 1765.861938,1403.872559 
	C1752.797485,1423.700684 1748.520020,1445.792847 1749.524414,1469.383789 
	C1750.436157,1490.797607 1756.106689,1510.527344 1767.267456,1528.725342 
	C1782.458984,1553.495850 1804.870361,1569.640503 1831.097534,1580.685913 
	C1849.183472,1588.302734 1867.954102,1593.484253 1887.891968,1594.290649 
	C1900.208130,1594.788940 1906.551758,1587.528809 1908.376831,1576.040283 
	C1911.490967,1556.437744 1908.749146,1537.007080 1907.090088,1517.545044 
	C1906.473999,1510.317139 1903.971069,1503.010986 1904.639282,1495.959595 
	C1906.321655,1478.207642 1908.246826,1460.347656 1912.017700,1442.952393 
	C1919.394897,1408.919922 1928.478394,1375.349121 1945.844849,1344.615845 
	C1948.650757,1339.650391 1949.689941,1333.305054 1950.146362,1327.487671 
	C1950.747925,1319.821289 1946.975952,1314.444580 1939.688721,1312.504395 
	C1933.684814,1310.906006 1927.130249,1309.683838 1921.063477,1310.389893 
	C1910.567017,1311.611328 1899.910034,1313.423584 1889.933960,1316.800415 
	C1849.943237,1330.337402 1813.649048,1350.248047 1783.085693,1382.104980 
z" data-index="1" style="visibility: visible; opacity: 1;"></path>

<path fill="#010101" opacity="1.000000" stroke="none" d="
M3336.000000,795.062683 
	C3332.604736,807.185913 3324.052734,812.325928 3313.392822,813.820129 
	C3299.626221,815.749756 3285.737793,817.718750 3271.878418,817.905334 
	C3231.915771,818.443481 3191.941406,818.188904 3151.971924,818.060913 
	C3127.346680,817.982056 3102.718506,817.737183 3078.098877,817.227417 
	C3065.832031,816.973511 3053.499512,816.626282 3041.339355,815.147949 
	C3014.375000,811.869812 3004.797852,801.834961 3001.875000,774.036743 
	C3000.708984,762.945984 3001.743408,751.631042 3001.618652,740.419922 
	C3001.570801,736.130188 3000.763672,731.837158 3000.875244,727.560486 
	C3001.020264,721.996399 3001.367676,716.382324 3002.331543,710.913635 
	C3003.004883,707.093567 3005.937744,704.667358 3009.918213,703.891174 
	C3010.897461,703.700256 3011.885498,703.384277 3012.865967,703.397766 
	C3040.801514,703.779663 3068.738770,704.104675 3096.671631,704.650574 
	C3108.614746,704.883972 3120.545410,705.729187 3132.488037,706.052673 
	C3160.393555,706.808716 3188.307129,707.296204 3216.210449,708.117432 
	C3247.743164,709.045410 3279.273926,710.086670 3310.794434,711.353210 
	C3323.072266,711.846558 3332.021240,721.261475 3335.316406,735.708984 
	C3336.000000,755.375122 3336.000000,774.750244 3336.000000,795.062683 
z" data-index="3" style="opacity: 1;"></path>
<path fill="#AAAAAA" opacity="1.000000" stroke="none" d="
M4.486288,964.212158 
	C4.205946,969.963684 3.925603,975.715271 2.822630,981.733398 
	C2.000000,976.599976 2.000000,971.199951 2.622825,964.938354 
	C3.659196,964.121887 4.072741,964.167053 4.486288,964.212158 
z" data-index="4" style="visibility: visible;"></path>
<path fill="#A5AAAA" opacity="1.000000" stroke="none" d="
M4.414679,1036.907227 
	C3.917788,1037.856934 3.539542,1037.939575 2.580648,1038.010986 
	C2.000000,1032.599976 2.000000,1027.199951 1.999994,1020.899963 
	C2.857749,1021.820251 4.245978,1023.580994 4.458123,1025.473633 
	C4.848340,1028.954956 4.546643,1032.513794 4.414679,1036.907227 
z" data-index="5" style="visibility: visible;"></path>
<path fill="#BAB4B4" opacity="1.000000" stroke="none" d="
M4.885714,963.915588 
	C4.072741,964.167053 3.659196,964.121887 2.622825,964.038330 
	C2.000000,964.000000 2.000000,963.000000 2.000000,962.500000 
	C2.727655,961.920227 3.455309,961.840454 4.739648,961.754089 
	C5.743840,962.374084 5.740109,962.997925 4.885714,963.915588 
z" data-index="6" style="visibility: visible;"></path>
<path fill="#020202" opacity="1.000000" stroke="none" d="
M3079.420898,1092.579102 
	C3042.994141,1057.485840 3006.820557,1023.142700 2971.303467,988.134033 
	C2961.694580,978.662781 2953.353516,967.666992 2945.722900,956.488892 
	C2936.575684,943.089050 2937.510498,928.715637 2946.381592,915.339844 
	C2957.474609,898.613770 2971.279297,884.287109 2987.232178,872.090942 
	C2989.584473,870.292480 2992.359131,869.048401 2994.929443,867.532776 
	C2999.299072,864.956177 3002.890137,865.749146 3006.407715,869.451599 
	C3012.826904,876.208435 3019.546631,882.679932 3026.138916,889.272339 
	C3079.356445,942.491882 3132.574707,995.710510 3185.789795,1048.932495 
	C3197.898193,1061.042480 3199.997070,1073.230103 3192.603027,1088.768311 
	C3191.322754,1091.458740 3190.008301,1094.165039 3188.391602,1096.657837 
	C3178.734863,1111.546875 3166.330322,1124.053467 3153.198730,1135.764648 
	C3145.010498,1143.067505 3138.594727,1143.405884 3129.647705,1137.455200 
	C3122.500244,1132.701538 3115.750977,1127.219971 3109.396729,1121.433472 
	C3099.320557,1112.257690 3089.721680,1102.557495 3079.420898,1092.579102 
z" data-index="7" style="visibility: visible; opacity: 1;"></path>
<path fill="#020101" opacity="1.000000" stroke="none" d="
M3130.576172,514.640503 
	C3118.090088,528.480164 3106.385254,542.080811 3093.998047,555.028625 
	C3069.617676,580.511414 3044.974365,605.746155 3020.170654,630.817261 
	C3014.364746,636.685913 3007.684326,641.757507 3001.055664,646.728394 
	C2990.868408,654.367981 2979.658936,654.961792 2969.650146,647.348389 
	C2955.932617,636.913635 2942.095459,626.263611 2930.207031,613.883667 
	C2911.709229,594.620422 2913.370117,568.961243 2932.142578,550.874390 
	C2970.961182,513.473450 3009.454346,475.734406 3048.041016,438.093414 
	C3055.880127,430.446381 3063.689941,422.758972 3071.254883,414.843262 
	C3085.612793,399.820648 3102.549072,397.338409 3118.395752,409.716644 
	C3131.156982,419.684570 3143.124512,430.765411 3154.725830,442.088684 
	C3163.445312,450.599274 3164.339355,461.387115 3159.800781,472.560394 
	C3153.310303,488.539673 3142.121582,501.287354 3130.576172,514.640503 
z" data-index="8"></path>
<path fill="#020202" opacity="1.000000" stroke="none" d="
M2911.462402,990.506897 
	C2928.598389,1022.104187 2945.421875,1053.047729 2961.872070,1084.188354 
	C2964.606201,1089.364014 2965.882080,1095.351685 2967.475342,1101.063477 
	C2967.969482,1102.833862 2967.862549,1105.226562 2967.045410,1106.833008 
	C2962.552734,1115.664429 2958.896240,1124.838135 2951.405762,1132.082520 
	C2943.983398,1139.261597 2936.665283,1145.790161 2927.050781,1150.276733 
	C2917.545654,1154.712280 2908.048828,1155.945435 2898.068604,1155.119873 
	C2895.583496,1154.914429 2892.455811,1152.989746 2891.032471,1150.896973 
	C2876.094727,1128.929077 2861.177734,1106.936646 2846.816406,1084.590210 
	C2838.741943,1072.025635 2831.594971,1058.854736 2824.314453,1045.798340 
	C2822.787598,1043.060669 2821.893066,1039.654541 2821.752686,1036.510010 
	C2820.714111,1013.182800 2829.565918,995.072083 2850.743652,984.076233 
	C2862.222412,978.116272 2874.115479,972.955078 2885.591064,966.989746 
	C2890.480469,964.448181 2894.102295,965.612305 2896.927734,969.415955 
	C2901.869873,976.069641 2906.350586,983.066223 2911.462402,990.506897 
z" data-index="9" style="visibility: visible; opacity: 1;"></path>
<path fill="#020202" opacity="1.000000" stroke="none" d="
M2818.674072,529.255005 
	C2809.299072,524.172363 2800.569824,519.486267 2791.851807,514.779602 
	C2784.281982,510.692871 2781.268555,504.178650 2781.643799,495.779602 
	C2782.026855,487.214722 2785.194336,479.530426 2789.657227,472.496002 
	C2797.479980,460.165558 2805.909668,448.221649 2813.831055,435.951782 
	C2821.209473,424.522949 2828.186035,412.835602 2835.476807,401.349152 
	C2839.733643,394.642242 2843.679199,387.613953 2848.784668,381.595459 
	C2859.205322,369.311432 2868.868408,367.144196 2883.330322,373.822479 
	C2892.336914,377.981720 2900.921875,383.122375 2909.451416,388.231018 
	C2921.817627,395.637573 2925.799805,407.100983 2923.026123,420.688934 
	C2921.247803,429.399902 2919.086670,438.312439 2915.298828,446.279541 
	C2905.020996,467.896881 2897.110107,490.356812 2889.017090,512.812256 
	C2886.025879,521.112061 2881.173340,528.970886 2876.016846,536.209351 
	C2867.224121,548.551941 2857.011719,549.528503 2844.310547,541.730408 
	C2836.465576,536.913635 2827.685303,533.619995 2818.674072,529.255005 
z" data-index="10"></path>

<path fill="#FEFEFE" opacity="1.000000" stroke="none" d="
M1506.337036,1399.882324 
	C1505.085083,1410.703247 1504.032349,1420.575928 1502.516602,1430.376953 
	C1501.365723,1437.819336 1497.757324,1444.136963 1492.018311,1449.102539 
	C1467.667969,1470.171387 1443.388184,1491.323242 1418.908081,1512.240479 
	C1388.199707,1538.479614 1351.479614,1548.024658 1312.150513,1550.095337 
	C1299.895752,1550.740601 1287.643066,1551.427979 1275.389282,1552.090820 
	C1248.232544,1553.559692 1221.665161,1549.162109 1195.539429,1542.672485 
	C1175.314697,1537.648804 1155.481079,1530.981323 1135.616577,1524.599365 
	C1119.243530,1519.338989 1105.051636,1510.070557 1092.447021,1498.522339 
	C1075.287109,1482.800781 1060.009888,1465.411987 1045.326294,1447.285522 
	C1021.479614,1417.847778 1019.533569,1366.943237 1041.380249,1334.273926 
	C1070.627808,1290.537720 1109.137329,1260.825073 1159.784790,1245.524902 
	C1193.206787,1235.428345 1227.160034,1231.231934 1261.651489,1229.357544 
	C1276.573120,1228.546631 1291.559082,1227.784302 1306.473511,1228.277466 
	C1323.014282,1228.824585 1339.550293,1230.449463 1356.007202,1232.318970 
	C1369.812256,1233.887329 1381.770874,1240.892090 1393.693481,1247.423340 
	C1415.280151,1259.248779 1436.298950,1272.070801 1454.989136,1288.197876 
	C1474.049805,1304.644653 1489.441895,1324.109497 1500.290283,1346.966187 
	C1505.544189,1358.036011 1505.817871,1370.018311 1506.297607,1381.917725 
	C1506.525513,1387.570923 1506.337036,1393.240967 1506.337036,1399.882324 
z" data-index="12" style="visibility: hidden; opacity: 1;"></path>

<path fill="#FDFDFD" opacity="1.000000" stroke="none" d="
M1783.589111,1381.601318 
	C1813.649048,1350.248047 1849.943237,1330.337402 1889.933960,1316.800415 
	C1899.910034,1313.423584 1910.567017,1311.611328 1921.063477,1310.389893 
	C1927.130249,1309.683838 1933.684814,1310.906006 1939.688721,1312.504395 
	C1946.975952,1314.444580 1950.747925,1319.821289 1950.146362,1327.487671 
	C1949.689941,1333.305054 1948.650757,1339.650391 1945.844849,1344.615845 
	C1928.478394,1375.349121 1919.394897,1408.919922 1912.017700,1442.952393 
	C1908.246826,1460.347656 1906.321655,1478.207642 1904.639282,1495.959595 
	C1903.971069,1503.010986 1906.473999,1510.317139 1907.090088,1517.545044 
	C1908.749146,1537.007080 1911.490967,1556.437744 1908.376831,1576.040283 
	C1906.551758,1587.528809 1900.208130,1594.788940 1887.891968,1594.290649 
	C1867.954102,1593.484253 1849.183472,1588.302734 1831.097534,1580.685913 
	C1804.870361,1569.640503 1782.458984,1553.495850 1767.267456,1528.725342 
	C1756.106689,1510.527344 1750.436157,1490.797607 1749.524414,1469.383789 
	C1748.520020,1445.792847 1752.797485,1423.700684 1765.861938,1403.872559 
	C1770.933350,1396.175415 1777.305908,1389.335449 1783.589111,1381.601318 
z" data-index="14" style="visibility: hidden; opacity: 1;"></path>
</svg>